<svg width="25" height="18" viewBox="0 0 25 18" fill="none" xmlns="http://www.w3.org/2000/svg">
<path d="M20.8906 0.149658C21.8339 0.150759 22.739 0.524455 23.4062 1.18774C24.0733 1.85103 24.4491 2.75043 24.4502 3.68872V13.9114L24.4453 14.0872C24.4006 14.9614 24.0315 15.7906 23.4062 16.4124C22.739 17.0756 21.8339 17.4493 20.8906 17.4504H3.70898C2.76573 17.4493 1.86061 17.0756 1.19336 16.4124C0.897168 16.1178 0.658325 15.7768 0.484375 15.4065C0.465377 15.3734 0.448382 15.3389 0.43457 15.303C0.431051 15.2938 0.428927 15.2839 0.425781 15.2747C0.245807 14.8469 0.149973 14.3841 0.149414 13.9114V3.68872L0.154297 3.51294C0.198973 2.6387 0.568071 1.80949 1.19336 1.18774C1.86061 0.524455 2.76573 0.150759 3.70898 0.149658H20.8906ZM14.4473 10.6624C13.8283 11.1253 13.0742 11.3744 12.2998 11.3733V11.3743C11.6222 11.3753 10.9602 11.1843 10.3906 10.8264L10.1523 10.6624L8.55566 9.46118L2.10156 15.1829C2.14947 15.2426 2.19998 15.3011 2.25488 15.3557C2.64035 15.7388 3.16353 15.9543 3.70898 15.9543H20.8906C21.4361 15.9543 21.9593 15.7388 22.3447 15.3557C22.3995 15.3013 22.4493 15.2425 22.4971 15.1829L16.043 9.46118L14.4473 10.6624ZM17.2666 8.54224L22.9463 13.5793V4.27173L17.2666 8.54224ZM1.65332 13.5754L7.33105 8.54126L1.65332 4.27173V13.5754ZM3.70898 1.64575C3.16353 1.64575 2.64035 1.86131 2.25488 2.24438C2.13868 2.3599 2.03925 2.48905 1.95508 2.62622L8.89648 7.84985C8.94639 7.87896 8.99184 7.91414 9.03418 7.95435L11.0576 9.47681L11.1953 9.57153C11.5251 9.7773 11.9081 9.88696 12.2998 9.88696C12.7475 9.88691 13.1834 9.7429 13.542 9.47681L15.5615 7.9563C15.6045 7.91507 15.6513 7.87957 15.7021 7.84985L22.6436 2.62622C22.5594 2.48922 22.4608 2.35978 22.3447 2.24438C21.9593 1.86131 21.4361 1.64575 20.8906 1.64575H3.70898Z" fill="#1B1B1B" stroke="#1B1B1B" stroke-width="0.3"/>
</svg>
