<svg width="24" height="26" viewBox="0 0 24 26" fill="none" xmlns="http://www.w3.org/2000/svg">
<path d="M9.99981 23.0462C9.99978 22.8729 9.96191 22.7018 9.88886 22.5449C9.81582 22.388 9.7094 22.2492 9.57714 22.1383C9.44488 22.0274 9.29002 21.9472 9.12353 21.9033C8.95704 21.8594 8.78301 21.8529 8.61375 21.8843C7.07757 22.1681 5.13801 22.2108 4.62231 20.7524C4.17264 19.6229 3.42779 18.637 2.46673 17.8991C2.39816 17.8615 2.33281 17.8183 2.27135 17.7699C2.18724 17.5465 2.03784 17.354 1.84287 17.2178C1.64789 17.0817 1.4165 17.0082 1.17922 17.0072H1.1735C0.863227 17.0071 0.56555 17.1307 0.34562 17.3511C0.12569 17.5714 0.00142245 17.8705 1.64533e-05 18.1829C-0.00457186 19.1464 0.951709 19.7636 1.33966 19.9725C1.79714 20.4353 2.1648 20.98 2.42376 21.5786C2.85121 22.7878 4.09345 24.6223 7.66431 24.3858C7.66549 24.4274 7.6666 24.4666 7.66718 24.5024L7.67233 24.8185C7.67233 25.1319 7.79596 25.4324 8.01603 25.6539C8.2361 25.8755 8.53458 26 8.84581 26C9.15703 26 9.45551 25.8755 9.67558 25.6539C9.89566 25.4324 10.0193 25.1319 10.0193 24.8185L10.0136 24.4424C10.0078 24.2185 9.99981 23.8942 9.99981 23.0462ZM22.5173 5.17481C22.5546 5.02713 22.5913 4.86329 22.6233 4.67868C22.8131 3.362 22.6477 2.01816 22.1443 0.787999C22.0808 0.627626 21.9832 0.48318 21.8584 0.364789C21.7336 0.246398 21.5846 0.156926 21.4218 0.102646C21.004 -0.0392755 19.4616 -0.318499 16.5118 1.57952C14.0599 0.998571 11.5075 0.998571 9.05554 1.57952C6.11782 -0.290699 4.58335 -0.0369125 4.16965 0.0969278C4.00286 0.149009 3.84975 0.238007 3.72156 0.357399C3.59336 0.476791 3.49332 0.623551 3.42877 0.786924C2.91514 2.04071 2.75149 3.41195 2.95549 4.75256C2.98414 4.90371 3.01508 5.04332 3.04717 5.17139C2.07502 6.4751 1.55721 8.06531 1.57402 9.69547C1.57085 10.0592 1.58749 10.4228 1.62387 10.7847C2.01581 16.2226 5.53625 17.8552 7.98919 18.416C7.9382 18.5637 7.89179 18.7217 7.85053 18.889C7.777 19.193 7.82621 19.514 7.98736 19.7815C8.14851 20.049 8.40845 20.2413 8.71019 20.3161C9.01193 20.391 9.33083 20.3423 9.59696 20.1807C9.86309 20.0192 10.0547 19.758 10.1299 19.4544C10.2045 19.0607 10.3959 18.6991 10.6788 18.4171C10.8499 18.2663 10.9737 18.0688 11.0353 17.8484C11.0968 17.6281 11.0935 17.3945 11.0256 17.1761C10.9577 16.9576 10.8283 16.7638 10.653 16.618C10.4777 16.4723 10.2641 16.381 10.0382 16.3553C5.98489 15.8891 4.22523 14.2265 3.96051 10.5678C3.93119 10.278 3.91799 9.98675 3.92098 9.69548C3.90215 8.53366 4.28338 7.4011 4.99991 6.4902C5.07191 6.39523 5.1486 6.30397 5.22968 6.21674C5.37335 6.05488 5.46995 5.85629 5.50887 5.64278C5.54778 5.42926 5.52752 5.20908 5.45029 5.0064C5.37113 4.79318 5.31017 4.57354 5.26809 4.34988C5.17249 3.7139 5.20384 3.0651 5.36032 2.44147C6.38024 2.7315 7.34012 3.20359 8.19428 3.83526C8.33553 3.92999 8.49536 3.99303 8.66293 4.0201C8.83051 4.04718 9.0019 4.03766 9.1655 3.99219C11.5372 3.34414 14.0377 3.34455 16.4092 3.99337C16.5737 4.03879 16.746 4.04777 16.9143 4.01968C17.0825 3.9916 17.2427 3.92712 17.3839 3.83069C18.234 3.19639 19.1899 2.72008 20.2064 2.4242C20.3622 3.03285 20.3971 3.66649 20.309 4.28875C20.2665 4.53395 20.2001 4.77434 20.1107 5.00643C20.0335 5.2091 20.0132 5.42929 20.0521 5.6428C20.0911 5.85631 20.1877 6.0549 20.3313 6.21677C20.4219 6.31945 20.5124 6.43022 20.5938 6.53406C21.3052 7.42954 21.68 8.54907 21.6521 9.69547C21.6542 10.0022 21.6395 10.3088 21.608 10.6139C21.3496 14.2242 19.5831 15.888 15.5108 16.3552C15.2849 16.3811 15.0713 16.4726 14.896 16.6185C14.7207 16.7643 14.5913 16.9583 14.5235 17.1769C14.4557 17.3954 14.4524 17.6291 14.5141 17.8495C14.5757 18.0699 14.6997 18.2675 14.8708 18.4183C15.1626 18.7078 15.3544 19.0839 15.418 19.4913C15.4973 19.8076 15.5337 20.1332 15.5263 20.4593V23.217C15.5148 23.9819 15.5148 24.5554 15.5148 24.8184C15.5148 25.1318 15.6384 25.4323 15.8585 25.6539C16.0786 25.8755 16.3771 25.9999 16.6883 25.9999C16.9995 25.9999 17.298 25.8755 17.5181 25.6539C17.7381 25.4323 17.8618 25.1318 17.8618 24.8184C17.8618 24.5623 17.8618 24.0004 17.8732 23.2354V20.4593C17.8827 19.9369 17.8216 19.4156 17.6916 18.9098C17.6544 18.7437 17.6089 18.5797 17.5552 18.4183C19.3404 18.1197 20.9624 17.193 22.1325 15.8032C23.3027 14.4133 23.945 12.6505 23.9452 10.8285C23.9839 10.4521 24.0018 10.0739 23.9991 9.69547C24.0251 8.06355 23.503 6.47057 22.5173 5.17481Z" fill="#1B1B1B"/>
</svg>
