<svg width="25" height="25" viewBox="0 0 25 25" fill="none" xmlns="http://www.w3.org/2000/svg">
<path d="M6.02539 8.53027C6.42119 8.53054 6.73753 8.85712 6.7373 9.25488V23.6514C6.73682 24.0489 6.42022 24.3753 6.02441 24.375H1.32031C0.924751 24.3745 0.608288 24.0479 0.608398 23.6504V9.25391C0.608729 8.85639 0.92551 8.53014 1.32129 8.53027H6.02539ZM14.2559 8.53027C14.6517 8.53054 14.969 8.85712 14.9688 9.25488V9.62598C15.9633 8.91374 17.1514 8.53034 18.3711 8.53027C21.6877 8.53427 24.3711 11.2758 24.375 14.6533V23.6514C24.3745 24.0489 24.0579 24.3752 23.6621 24.375H18.958C18.5623 24.3747 18.246 24.048 18.2461 23.6504V17.0527C18.2461 16.1257 17.51 15.3781 16.6074 15.3779C15.7047 15.3779 14.9688 16.1256 14.9688 17.0527V23.6514C14.9683 24.0487 14.6515 24.375 14.2559 24.375H9.55176C9.15598 24.3747 8.83876 24.0481 8.83887 23.6504V9.25391C8.8392 8.85649 9.15611 8.5303 9.55176 8.53027H14.2559ZM10.2646 22.9258H13.543V17.0527C13.543 15.3297 14.9125 13.9287 16.6074 13.9287C18.3022 13.9289 19.6719 15.3298 19.6719 17.0527V22.9258H22.9492V14.6523C22.9552 13.2202 22.3146 11.8658 21.2139 10.9795C19.2384 9.38914 16.3731 9.73247 14.8135 11.749C14.6259 11.992 14.3058 12.0869 14.0186 11.9814V11.9805C13.7324 11.878 13.543 11.6039 13.543 11.2979V9.97949H10.2646V22.9258ZM2.03418 22.9258H5.31152V9.97949H2.03418V22.9258ZM3.69238 0.132812C3.83292 0.124676 3.97381 0.125721 4.11426 0.135742C5.95656 0.267261 7.34139 1.89602 7.21289 3.76953C7.08835 5.58462 5.589 6.97111 3.82031 6.93652L3.64844 6.92871H3.63086C3.55649 6.93318 3.48191 6.93526 3.40723 6.93457C1.57647 6.91829 0.109366 5.39187 0.125 3.53027L0.132812 3.30371C0.258381 1.42879 1.84924 0.00803167 3.69238 0.132812ZM3.32031 1.5752C2.26725 1.65791 1.47534 2.59736 1.55664 3.67773C1.63803 4.75806 2.56133 5.56206 3.61426 5.47949H3.6709L3.65723 5.60449L3.6709 5.48047C3.79792 5.4946 3.92639 5.49534 4.05371 5.4834C5.10617 5.38435 5.88461 4.43236 5.78711 3.35254C5.68952 2.27313 4.75422 1.48321 3.70215 1.58203L3.68945 1.58301L3.67676 1.58203C3.55861 1.56878 3.43889 1.56593 3.32031 1.5752Z" fill="#1B1B1B" stroke="#1B1B1B" stroke-width="0.25"/>
</svg>
