<svg width="92" height="60" viewBox="0 0 92 60" fill="none" xmlns="http://www.w3.org/2000/svg">
<path d="M7.69238 0H66.9231V2.30769H10.0001C8.72558 2.30769 7.69238 1.2745 7.69238 0Z" fill="black"/>
<path d="M91.5386 60L33.3078 60C32.7555 60 32.3078 59.5523 32.3078 59L32.3078 58.6923C32.3078 58.14 32.7555 57.6923 33.3078 57.6923L89.2309 57.6923C90.5054 57.6923 91.5386 58.7255 91.5386 60Z" fill="black"/>
<rect x="41.5386" y="1.53846" width="37.6923" height="5.38461" transform="rotate(90 41.5386 1.53846)" fill="black"/>
<circle cx="20.7692" cy="39.2308" r="20.7692" fill="black"/>
<circle cx="19.6154" cy="38.0769" r="16.5385" fill="white"/>
<rect x="7.69238" y="2.30769" width="28.4615" height="35.3846" fill="white"/>
<path d="M49.2307 0H54.6153V60H49.2307V0Z" fill="black"/>
<rect x="50" width="16.1538" height="32.3077" fill="black"/>
<circle cx="66.9231" cy="16.1538" r="16.1538" fill="black"/>
<rect x="54.6155" y="2.3077" width="9.23077" height="27.6923" fill="white"/>
<path d="M63.8462 2.3077C67.5184 2.3077 71.0402 3.76648 73.6369 6.36314C76.2335 8.9598 77.6923 12.4816 77.6923 16.1538C77.6923 19.8261 76.2335 23.3479 73.6369 25.9446C71.0402 28.5412 67.5184 30 63.8462 30L63.8462 16.1538L63.8462 2.3077Z" fill="white"/>
</svg>
